<svg id="visual" viewBox="0 0 1920 1080" width="1920" height="1080" xmlns="http://www.w3.org/2000/svg" xmlns:xlink="http://www.w3.org/1999/xlink" version="1.1"><rect x="0" y="0" width="1920" height="1080" fill="#d0ece7"></rect><path d="M0 494L45.7 513.3C91.3 532.7 182.7 571.3 274.2 570C365.7 568.7 457.3 527.3 548.8 505.8C640.3 484.3 731.7 482.7 823 486.7C914.3 490.7 1005.7 500.3 1097 525.5C1188.3 550.7 1279.7 591.3 1371.2 568C1462.7 544.7 1554.3 457.3 1645.8 415.2C1737.3 373 1828.7 376 1874.3 377.5L1920 379L1920 1081L1874.3 1081C1828.7 1081 1737.3 1081 1645.8 1081C1554.3 1081 1462.7 1081 1371.2 1081C1279.7 1081 1188.3 1081 1097 1081C1005.7 1081 914.3 1081 823 1081C731.7 1081 640.3 1081 548.8 1081C457.3 1081 365.7 1081 274.2 1081C182.7 1081 91.3 1081 45.7 1081L0 1081Z" fill="#a3e4d7"></path><path d="M0 595L45.7 617.2C91.3 639.3 182.7 683.7 274.2 694.8C365.7 706 457.3 684 548.8 666.3C640.3 648.7 731.7 635.3 823 622.5C914.3 609.7 1005.7 597.3 1097 601.2C1188.3 605 1279.7 625 1371.2 633.7C1462.7 642.3 1554.3 639.7 1645.8 631.7C1737.3 623.7 1828.7 610.3 1874.3 603.7L1920 597L1920 1081L1874.3 1081C1828.7 1081 1737.3 1081 1645.8 1081C1554.3 1081 1462.7 1081 1371.2 1081C1279.7 1081 1188.3 1081 1097 1081C1005.7 1081 914.3 1081 823 1081C731.7 1081 640.3 1081 548.8 1081C457.3 1081 365.7 1081 274.2 1081C182.7 1081 91.3 1081 45.7 1081L0 1081Z" fill="#7dd4db"></path><path d="M0 856L45.7 847.8C91.3 839.7 182.7 823.3 274.2 808.5C365.7 793.7 457.3 780.3 548.8 786.5C640.3 792.7 731.7 818.3 823 805.8C914.3 793.3 1005.7 742.7 1097 744.5C1188.3 746.3 1279.7 800.7 1371.2 808.7C1462.7 816.7 1554.3 778.3 1645.8 753.5C1737.3 728.7 1828.7 717.3 1874.3 711.7L1920 706L1920 1081L1874.3 1081C1828.7 1081 1737.3 1081 1645.8 1081C1554.3 1081 1462.7 1081 1371.2 1081C1279.7 1081 1188.3 1081 1097 1081C1005.7 1081 914.3 1081 823 1081C731.7 1081 640.3 1081 548.8 1081C457.3 1081 365.7 1081 274.2 1081C182.7 1081 91.3 1081 45.7 1081L0 1081Z" fill="#61c2e1"></path><path d="M0 925L45.7 917.5C91.3 910 182.7 895 274.2 890C365.7 885 457.3 890 548.8 903.8C640.3 917.7 731.7 940.3 823 932.2C914.3 924 1005.7 885 1097 888.5C1188.3 892 1279.7 938 1371.2 945.3C1462.7 952.7 1554.3 921.3 1645.8 908.3C1737.3 895.3 1828.7 900.7 1874.3 903.3L1920 906L1920 1081L1874.3 1081C1828.7 1081 1737.3 1081 1645.8 1081C1554.3 1081 1462.7 1081 1371.2 1081C1279.7 1081 1188.3 1081 1097 1081C1005.7 1081 914.3 1081 823 1081C731.7 1081 640.3 1081 548.8 1081C457.3 1081 365.7 1081 274.2 1081C182.7 1081 91.3 1081 45.7 1081L0 1081Z" fill="#5dade2"></path></svg>